<svg width="87" height="20" viewBox="0 0 87 20" fill="none" xmlns="http://www.w3.org/2000/svg">
<path d="M4.48 16.176C3.552 16.176 2.752 16.0267 2.08 15.728C1.41867 15.4187 0.810667 14.9547 0.256 14.336L1.888 12.72C2.25067 13.136 2.65067 13.4613 3.088 13.696C3.536 13.92 4.05333 14.032 4.64 14.032C5.17333 14.032 5.584 13.936 5.872 13.744C6.17067 13.552 6.32 13.2853 6.32 12.944C6.32 12.6347 6.224 12.384 6.032 12.192C5.84 12 5.584 11.8347 5.264 11.696C4.95467 11.5573 4.608 11.424 4.224 11.296C3.85067 11.168 3.47733 11.024 3.104 10.864C2.73067 10.6933 2.384 10.4853 2.064 10.24C1.75467 9.984 1.504 9.66933 1.312 9.296C1.12 8.912 1.024 8.432 1.024 7.856C1.024 7.16267 1.18933 6.56533 1.52 6.064C1.86133 5.56267 2.33067 5.184 2.928 4.928C3.52533 4.66133 4.21333 4.528 4.992 4.528C5.78133 4.528 6.50133 4.66667 7.152 4.944C7.81333 5.22133 8.35733 5.6 8.784 6.08L7.152 7.696C6.81067 7.344 6.464 7.08267 6.112 6.912C5.77067 6.74133 5.38133 6.656 4.944 6.656C4.50667 6.656 4.16 6.74133 3.904 6.912C3.648 7.072 3.52 7.30667 3.52 7.616C3.52 7.904 3.616 8.13867 3.808 8.32C4 8.49067 4.25067 8.64 4.56 8.768C4.88 8.896 5.22667 9.024 5.6 9.152C5.984 9.28 6.36267 9.42933 6.736 9.6C7.10933 9.77067 7.45067 9.98933 7.76 10.256C8.08 10.512 8.336 10.8427 8.528 11.248C8.72 11.6427 8.816 12.1333 8.816 12.72C8.816 13.7973 8.432 14.6453 7.664 15.264C6.896 15.872 5.83467 16.176 4.48 16.176ZM13.9361 11.888V9.936H16.3681C16.6775 9.936 16.9601 9.872 17.2161 9.744C17.4721 9.616 17.6748 9.42933 17.8241 9.184C17.9735 8.93867 18.0481 8.64 18.0481 8.288C18.0481 7.94667 17.9735 7.65333 17.8241 7.408C17.6748 7.16267 17.4721 6.976 17.2161 6.848C16.9601 6.72 16.6775 6.656 16.3681 6.656H13.9361V4.704H16.7361C17.4508 4.704 18.0961 4.848 18.6721 5.136C19.2481 5.424 19.7015 5.84 20.0321 6.384C20.3735 6.91733 20.5441 7.552 20.5441 8.288C20.5441 9.024 20.3735 9.664 20.0321 10.208C19.7015 10.7413 19.2481 11.1573 18.6721 11.456C18.0961 11.744 17.4508 11.888 16.7361 11.888H13.9361ZM12.0161 16V4.704H14.5281V16H12.0161ZM29.055 16.192C28.2017 16.192 27.4123 16.0427 26.687 15.744C25.9723 15.4453 25.343 15.0293 24.799 14.496C24.255 13.9627 23.8337 13.344 23.535 12.64C23.2363 11.9253 23.087 11.1573 23.087 10.336C23.087 9.504 23.2363 8.736 23.535 8.032C23.8337 7.328 24.2497 6.71467 24.783 6.192C25.3163 5.65867 25.9403 5.248 26.655 4.96C27.3803 4.66133 28.1697 4.512 29.023 4.512C29.8657 4.512 30.6443 4.66133 31.359 4.96C32.0843 5.248 32.7137 5.65867 33.247 6.192C33.791 6.71467 34.2123 7.33333 34.511 8.048C34.8097 8.752 34.959 9.52 34.959 10.352C34.959 11.1733 34.8097 11.9413 34.511 12.656C34.2123 13.36 33.7963 13.9787 33.263 14.512C32.7297 15.0347 32.1003 15.4453 31.375 15.744C30.6603 16.0427 29.887 16.192 29.055 16.192ZM29.023 13.904C29.695 13.904 30.2817 13.7547 30.783 13.456C31.295 13.1573 31.6897 12.7413 31.967 12.208C32.2443 11.664 32.383 11.04 32.383 10.336C32.383 9.80267 32.303 9.32267 32.143 8.896C31.983 8.45867 31.7537 8.08533 31.455 7.776C31.1563 7.456 30.799 7.216 30.383 7.056C29.9777 6.88533 29.5243 6.8 29.023 6.8C28.351 6.8 27.759 6.94933 27.247 7.248C26.7457 7.536 26.3563 7.94667 26.079 8.48C25.8017 9.00267 25.663 9.62133 25.663 10.336C25.663 10.8693 25.743 11.3547 25.903 11.792C26.063 12.2293 26.287 12.608 26.575 12.928C26.8737 13.2373 27.231 13.4773 27.647 13.648C28.063 13.8187 28.5217 13.904 29.023 13.904ZM40.3279 16V4.864H42.8399V16H40.3279ZM36.7919 6.896V4.704H46.3759V6.896H36.7919ZM49.3786 16V4.704H51.8906V16H49.3786ZM55.6661 16V4.704H58.1781V16H55.6661ZM57.6021 16V13.792H63.1861V16H57.6021ZM66.2349 16V4.704H68.7469V16H66.2349ZM74.4424 16V14.048H77.0984C77.589 14.048 77.973 13.904 78.2504 13.616C78.5277 13.328 78.6664 12.976 78.6664 12.56C78.6664 12.272 78.6024 12.016 78.4744 11.792C78.3464 11.568 78.165 11.392 77.9304 11.264C77.7064 11.136 77.429 11.072 77.0984 11.072H74.4424V9.168H76.8904C77.3064 9.168 77.6424 9.06667 77.8984 8.864C78.1544 8.65067 78.2824 8.33067 78.2824 7.904C78.2824 7.488 78.1544 7.17867 77.8984 6.976C77.6424 6.76267 77.3064 6.656 76.8904 6.656H74.4424V4.704H77.3704C78.0957 4.704 78.709 4.83733 79.2104 5.104C79.7224 5.37067 80.1117 5.728 80.3784 6.176C80.645 6.624 80.7784 7.12 80.7784 7.664C80.7784 8.35733 80.5544 8.944 80.1064 9.424C79.6584 9.904 78.997 10.2347 78.1224 10.416L78.1864 9.568C79.1357 9.74933 79.8664 10.1173 80.3784 10.672C80.901 11.2267 81.1624 11.9093 81.1624 12.72C81.1624 13.3387 81.0077 13.8987 80.6984 14.4C80.3997 14.8907 79.9624 15.28 79.3864 15.568C78.821 15.856 78.1384 16 77.3384 16H74.4424ZM72.5224 16V4.704H75.0024V16H72.5224Z" fill="#F5F5F5"/>
<rect x="84" y="13" width="3" height="3" fill="#208DF3"/>
</svg>
